<svg id="_001-shop" data-name="001-shop" xmlns="http://www.w3.org/2000/svg" width="254.232" height="254.232" viewBox="0 0 254.232 254.232">
  <defs>
    <style>
      .cls-1 {
        fill: #d9cec5;
      }
    </style>
  </defs>
  <g id="Groupe_3221" data-name="Groupe 3221">
    <path id="Tracé_3066" data-name="Tracé 3066" class="cls-1" d="M253.769,60.689,235.61,6.211A9.079,9.079,0,0,0,226.993,0H27.239a9.079,9.079,0,0,0-8.617,6.211L.463,60.689A9.254,9.254,0,0,0,0,63.313v9.325a45.209,45.209,0,0,0,18.159,36.119V226.993A27.239,27.239,0,0,0,45.4,254.232H208.833a27.239,27.239,0,0,0,27.239-27.239V108.757a45.207,45.207,0,0,0,18.159-36.119V63.313A9.229,9.229,0,0,0,253.769,60.689Zm-63.095-42.53h29.773l12.112,36.319H190.674Zm-54.478,0h36.319V54.478H136.2Zm-54.478,0h36.319V54.478H81.717Zm-47.932,0H63.558V54.478H21.673Zm111.49,217.913H108.957V163.435h36.319v72.638Zm72.638-9.079a9.08,9.08,0,0,1-9.08,9.08h-45.4V154.355a9.08,9.08,0,0,0-9.08-9.08H99.877a9.08,9.08,0,0,0-9.08,9.08v81.717H45.4a9.08,9.08,0,0,1-9.08-9.08V117.128a44.883,44.883,0,0,0,36.319-8.335,46.016,46.016,0,0,0,54.478,0,46.016,46.016,0,0,0,54.478,0,44.881,44.881,0,0,0,36.319,8.335Zm-9.08-127.116a26.831,26.831,0,0,1-20.4-9.425,9.08,9.08,0,0,0-13.674,0,27.394,27.394,0,0,1-40.8,0,9.388,9.388,0,0,0-13.271-.4q-.207.2-.4.4a27.394,27.394,0,0,1-40.8,0,9.388,9.388,0,0,0-13.271-.4q-.207.2-.4.4a26.83,26.83,0,0,1-20.4,9.425A27.239,27.239,0,0,1,18.159,72.638H236.072A27.239,27.239,0,0,1,208.833,99.877Z"/>
  </g>
</svg>
