<svg xmlns="http://www.w3.org/2000/svg" width="319.163" height="281.379" viewBox="0 0 319.163 281.379">
  <defs>
    <style>
      .cls-1 {
        fill: #d9cec5;
      }
    </style>
  </defs>
  <path id="_001-shopping-cart" data-name="001-shopping-cart" class="cls-1" d="M306.049,72.569H56.5L52.794,32.819A12.921,12.921,0,0,0,39.739,21.338H13.107A12.865,12.865,0,0,0,0,33.946,12.865,12.865,0,0,0,13.107,46.554H27.755c8,85.784-12.684-135.935,15.075,161.556,1.07,11.644,7.61,24.279,18.878,32.864C41.394,265.928,59.955,302.717,93,302.717c27.427,0,46.772-26.312,37.366-51.233h71.739c-9.394,24.889,9.909,51.233,37.366,51.233,21.912,0,39.739-17.147,39.739-38.224s-17.827-38.224-39.739-38.224H93.089a24.381,24.381,0,0,1-22.378-14.2l209.475-11.842a12.989,12.989,0,0,0,11.947-9.528L318.766,88.234c2.065-7.945-4.188-15.666-12.717-15.666ZM93,277.5a13.018,13.018,0,1,1,13.524-13.008A13.289,13.289,0,0,1,93,277.5Zm146.471,0A13.018,13.018,0,1,1,253,264.492,13.289,13.289,0,0,1,239.471,277.5Zm29.564-101.9L67.183,187.011,58.856,97.784H289.262Z" transform="translate(0 -21.338)"/>
</svg>
