<svg xmlns="http://www.w3.org/2000/svg" width="205.068" height="205.461" viewBox="0 0 205.068 205.461">
  <defs>
    <style>
      .cls-1 {
        fill: #d9cec5;
      }
    </style>
  </defs>
  <path id="Icon_feather-phone-call" data-name="Icon feather-phone-call" class="cls-1" d="M130.187,40.77a49.087,49.087,0,0,1,38.779,38.779M130.187,1.5a88.357,88.357,0,0,1,78.049,77.95m-9.817,78.343v29.452a19.635,19.635,0,0,1-21.4,19.635,194.287,194.287,0,0,1-84.724-30.139,191.44,191.44,0,0,1-58.9-58.9A194.287,194.287,0,0,1,3.248,32.719a19.635,19.635,0,0,1,19.537-21.4H52.237A19.635,19.635,0,0,1,71.871,28.2,126.055,126.055,0,0,0,78.744,55.79a19.635,19.635,0,0,1-4.418,20.715L61.858,88.973a157.079,157.079,0,0,0,58.9,58.9L133.23,135.41a19.635,19.635,0,0,1,20.715-4.418,126.055,126.055,0,0,0,27.587,6.872A19.635,19.635,0,0,1,198.418,157.794Z" transform="translate(-3.168 -1.5)"/>
</svg>
