<svg xmlns="http://www.w3.org/2000/svg" width="113.388" height="113.388" viewBox="0 0 113.388 113.388">
  <defs>
    <style>
      .cls-1 {
        fill: #2e2e22;
        fill-rule: evenodd;
      }
    </style>
  </defs>
  <path id="Instagram" class="cls-1" d="M56.694,10.079c15.118,0,17.008,0,22.678.63A29.217,29.217,0,0,1,90.081,12.6,22.123,22.123,0,0,1,100.79,23.308a29.218,29.218,0,0,1,1.89,10.709c0,5.669.63,7.559.63,22.678s0,17.008-.63,22.678a29.218,29.218,0,0,1-1.89,10.709A22.123,22.123,0,0,1,90.081,100.79a29.218,29.218,0,0,1-10.709,1.89c-5.669,0-7.559.63-22.678.63s-17.008,0-22.678-.63a29.218,29.218,0,0,1-10.709-1.89A22.123,22.123,0,0,1,12.6,90.081a29.217,29.217,0,0,1-1.89-10.709c0-5.669-.63-7.559-.63-22.678s0-17.008.63-22.678A29.217,29.217,0,0,1,12.6,23.308a22.624,22.624,0,0,1,4.41-6.3,10.65,10.65,0,0,1,6.3-4.41,29.217,29.217,0,0,1,10.709-1.89c5.669-.63,7.559-.63,22.678-.63M56.694,0C41.576,0,39.056,0,33.387.63A38.89,38.89,0,0,0,19.528,3.15a24.66,24.66,0,0,0-10.079,6.3,24.66,24.66,0,0,0-6.3,10.079C1.26,23.308.63,27.087.63,33.387,0,39.056,0,41.576,0,56.694S0,74.332.63,80A38.89,38.89,0,0,0,3.15,93.86a24.66,24.66,0,0,0,6.3,10.079,24.66,24.66,0,0,0,10.079,6.3,38.89,38.89,0,0,0,13.859,2.52c5.669.63,8.189.63,23.308.63s17.638,0,23.308-.63a38.89,38.89,0,0,0,13.859-2.52A26.429,26.429,0,0,0,110.239,93.86,38.89,38.89,0,0,0,112.758,80c0-6.3.63-8.189.63-23.308s0-17.638-.63-23.308a38.89,38.89,0,0,0-2.52-13.859,24.66,24.66,0,0,0-6.3-10.079A24.66,24.66,0,0,0,93.86,3.15,38.89,38.89,0,0,0,80,.63C74.332,0,71.813,0,56.694,0m0,27.717A28.51,28.51,0,0,0,27.717,56.694,28.977,28.977,0,1,0,56.694,27.717m0,47.875a18.561,18.561,0,0,1-18.9-18.9,18.561,18.561,0,0,1,18.9-18.9,18.561,18.561,0,0,1,18.9,18.9,18.561,18.561,0,0,1-18.9,18.9M86.931,19.528a6.929,6.929,0,1,0,6.929,6.929,6.991,6.991,0,0,0-6.929-6.929"/>
</svg>
