<svg id="Groupe_3305" data-name="Groupe 3305" xmlns="http://www.w3.org/2000/svg" width="97.605" height="97.605" viewBox="0 0 97.605 97.605">
  <defs>
    <style>
      .cls-1 {
        fill: #2e2e22;
      }

      .cls-2 {
        fill: #f1f2f2;
      }
    </style>
  </defs>
  <circle id="Ellipse_4" data-name="Ellipse 4" class="cls-1" cx="48.802" cy="48.802" r="48.802"/>
  <g id="Groupe_3263" data-name="Groupe 3263" transform="translate(41.884 41.912)">
    <path id="Tracé_3068" data-name="Tracé 3068" class="cls-2" d="M45.244,50.544c-2.178-.168-3.093-1.249-4.8-2.285-.939,4.926-2.086,9.648-5.485,12.115C33.907,52.928,36.5,47.336,37.7,41.4c-2.05-3.451.247-10.4,4.571-8.686,5.322,2.1-4.608,12.833,2.058,14.173,6.96,1.4,9.8-12.076,5.485-16.459-6.236-6.328-18.152-.144-16.687,8.915.357,2.215,2.646,2.887.914,5.943-3.991-.884-5.182-4.032-5.029-8.228.247-6.869,6.172-11.679,12.116-12.345,7.516-.841,14.571,2.76,15.545,9.83,1.1,7.98-3.393,16.621-11.43,16Z" transform="translate(-36 -35.593)"/>
  </g>
</svg>
