<svg xmlns="http://www.w3.org/2000/svg" width="78" height="73" viewBox="0 0 78 73">
  <defs>
    <style>
      .cls-1 {
        fill: #ffeb9b;
      }

      .cls-2, .cls-3 {
        stroke: none;
      }

      .cls-3 {
        fill: #707070;
      }
    </style>
  </defs>
  <g id="Polygone_1" data-name="Polygone 1" class="cls-1">
    <path class="cls-2" d="M 15.60564136505127 72.03437042236328 L 20.87429046630859 46.40616989135742 L 20.93185043334961 46.12619018554688 L 20.71977043151855 45.93452835083008 L 1.157510280609131 28.25564575195312 L 27.55124092102051 25.26734924316406 L 27.8302001953125 25.23575973510742 L 27.94845962524414 24.98114013671875 L 38.9999885559082 1.186950922012329 L 50.05152130126953 24.98114013671875 L 50.16978073120117 25.23575973510742 L 50.44873809814453 25.26734924316406 L 76.84249114990234 28.25564575195312 L 57.28020858764648 45.93452835083008 L 57.06813049316406 46.12619018554688 L 57.12569046020508 46.40616989135742 L 62.39433670043945 72.03437042236328 L 39.24274063110352 59.17773818969727 L 39 59.04293823242188 L 38.75725936889648 59.17773818969727 L 15.60564136505127 72.03437042236328 Z"/>
    <path class="cls-3" d="M 38.9999885559082 2.373916625976562 L 28.16541290283203 25.70101165771484 L 2.315025329589844 28.62778472900391 L 21.47915649414062 45.94687652587891 L 16.31460189819336 71.06874084472656 L 39 58.47101211547852 L 61.68537521362305 71.06874084472656 L 56.52082061767578 45.94687652587891 L 75.68497467041016 28.62778472900391 L 49.83456420898438 25.70101165771484 L 38.9999885559082 2.373916625976562 M 38.9999885559082 0 L 50.50498962402344 24.77052307128906 L 78 27.88349914550781 L 57.61545562744141 46.30548858642578 L 63.10330963134766 73 L 39 59.6148567199707 L 14.89666748046875 73 L 20.384521484375 46.30548858642578 L 0 27.88349914550781 L 27.49498748779297 24.77052307128906 L 38.9999885559082 0 Z"/>
  </g>
</svg>
