<svg xmlns="http://www.w3.org/2000/svg" width="78" height="73" viewBox="0 0 78 73">
  <defs>
    <style>
      .cls-1 {
        fill: none;
      }

      .cls-2, .cls-3 {
        stroke: none;
      }

      .cls-3 {
        fill: #707070;
      }
    </style>
  </defs>
  <g id="Polygone_1" data-name="Polygone 1" class="cls-1">
    <path class="cls-2" d="M39,0,50.5,24.771,78,27.883,57.615,46.305,63.1,73,39,59.615,14.9,73l5.488-26.695L0,27.884l27.495-3.113Z"/>
    <path class="cls-3" d="M 38.9999885559082 2.373916625976562 L 28.16541290283203 25.70101165771484 L 2.315025329589844 28.62778472900391 L 21.47915649414062 45.94687652587891 L 16.31460189819336 71.06874084472656 L 39 58.47101211547852 L 61.68537521362305 71.06874084472656 L 56.52082061767578 45.94687652587891 L 75.68497467041016 28.62778472900391 L 49.83456420898438 25.70101165771484 L 38.9999885559082 2.373916625976562 M 38.9999885559082 0 L 50.50498962402344 24.77052307128906 L 78 27.88349914550781 L 57.61545562744141 46.30548858642578 L 63.10330963134766 73 L 39 59.6148567199707 L 14.89666748046875 73 L 20.384521484375 46.30548858642578 L 0 27.88349914550781 L 27.49498748779297 24.77052307128906 L 38.9999885559082 0 Z"/>
  </g>
</svg>
