<?xml version="1.0" standalone="no"?>
<!DOCTYPE svg PUBLIC "-//W3C//DTD SVG 20010904//EN"
 "http://www.w3.org/TR/2001/REC-SVG-20010904/DTD/svg10.dtd">
<svg version="1.0" xmlns="http://www.w3.org/2000/svg"
 width="206.000000pt" height="90.000000pt" viewBox="0 0 206.000000 90.000000"
 preserveAspectRatio="xMidYMid meet">
<metadata>
Created by potrace 1.10, written by Peter Selinger 2001-2011
</metadata>
<g transform="translate(0.000000,90.000000) scale(0.100000,-0.100000)"
fill="#000000" stroke="none">
<path d="M183 713 c-61 -21 -141 -96 -149 -139 -10 -56 11 -91 87 -140 38 -24
76 -55 85 -69 33 -51 -6 -101 -86 -112 -53 -7 -84 18 -76 60 4 17 2 26 -4 22
-6 -3 -10 -21 -10 -40 0 -112 199 -67 202 45 1 38 -13 54 -87 101 -59 37 -89
73 -90 108 -2 66 117 160 202 161 40 0 49 -14 29 -45 -22 -33 -20 -42 4 -20
25 23 26 61 1 75 -26 13 -57 12 -108 -7z"/>
<path d="M923 711 c-88 -54 -203 -292 -203 -419 0 -76 50 -80 126 -10 24 22
44 46 44 52 -1 6 -11 -2 -24 -17 -29 -35 -75 -67 -99 -67 -27 0 -38 43 -26 98
9 42 15 50 61 77 66 39 161 133 188 185 13 26 20 55 18 78 -3 31 -7 37 -28 40
-14 1 -39 -7 -57 -17z m65 -29 c4 -45 -33 -106 -106 -173 -66 -60 -122 -97
-122 -79 0 29 99 200 141 243 55 57 82 60 87 9z"/>
<path d="M695 701 c-17 -10 -43 -33 -59 -51 -34 -41 -86 -143 -86 -169 0 -32
-19 -34 -26 -4 -10 46 -12 49 -13 16 -1 -17 5 -38 13 -46 11 -11 13 -29 9 -70
-6 -59 3 -127 16 -127 5 0 6 40 3 88 l-5 88 35 -4 c45 -5 84 15 135 71 54 59
83 117 83 166 0 61 -46 79 -105 42z m88 -12 c41 -65 -106 -259 -196 -259 -29
0 -29 1 -23 41 13 79 97 207 151 230 28 12 56 7 68 -12z"/>
<path d="M975 469 c-11 -17 0 -20 21 -4 17 13 17 14 2 15 -9 0 -20 -5 -23 -11z"/>
<path d="M1787 474 c-4 -4 -4 -10 -1 -15 6 -10 34 0 34 12 0 10 -24 12 -33 3z"/>
<path d="M1082 446 c23 -22 32 -76 24 -142 -3 -30 -3 -54 1 -54 5 0 19 27 33
60 28 67 64 119 75 108 4 -4 -2 -30 -14 -57 -11 -27 -21 -54 -21 -60 0 -20 26
-11 57 19 l31 31 -5 -41 c-4 -31 -2 -41 11 -46 11 -4 23 0 32 10 8 9 9 11 2 6
-7 -6 -16 -10 -20 -10 -12 0 -10 68 2 91 17 31 -3 22 -45 -21 -21 -22 -43 -40
-47 -40 -5 0 3 22 17 50 28 56 32 90 10 90 -22 0 -54 -36 -76 -86 -11 -24 -21
-44 -22 -44 -1 0 -3 20 -3 43 -1 49 -22 98 -44 105 -11 4 -11 1 2 -12z"/>
<path d="M1448 435 c-26 -31 -67 -121 -68 -151 0 -27 24 -37 53 -23 27 14 87
70 87 81 0 4 -19 -10 -41 -32 -69 -67 -98 -48 -63 40 12 30 22 40 39 40 29 0
48 24 40 50 -8 27 -20 25 -47 -5z m28 -24 c-4 -6 -14 -11 -22 -11 -12 0 -13 4
-3 21 7 14 14 18 21 11 6 -6 7 -15 4 -21z"/>
<path d="M1900 445 c0 -6 5 -16 11 -22 12 -12 8 -124 -6 -155 -14 -34 11 -18
50 32 44 56 54 61 48 26 -8 -42 32 -88 51 -57 3 5 -2 8 -12 7 -14 -1 -17 8
-17 57 0 31 -2 56 -6 55 -3 -2 -24 -24 -47 -50 l-40 -47 5 57 c4 48 2 61 -16
82 -11 14 -20 20 -21 15z"/>
<path d="M333 423 c-7 -2 -13 -9 -13 -15 0 -6 6 -6 15 2 24 20 19 -30 -10 -96
-30 -67 -29 -64 -9 -64 9 0 31 16 49 36 31 33 32 34 28 10 -8 -39 22 -45 58
-10 16 15 29 33 29 38 -1 6 -14 -4 -30 -23 -38 -44 -49 -33 -28 27 18 48 14
71 -6 38 -15 -27 -88 -107 -93 -103 -2 2 11 34 28 72 37 82 31 108 -18 88z"/>
<path d="M625 389 c-20 -18 -43 -45 -51 -60 -25 -48 -15 -46 19 5 17 27 43 56
56 65 l24 16 -5 -36 c-7 -43 -39 -111 -54 -116 -6 -2 -16 7 -22 19 -10 19 -11
19 -9 4 1 -10 10 -24 19 -30 24 -15 43 6 73 79 36 89 15 111 -50 54z"/>
<path d="M957 403 c-4 -3 -7 -34 -7 -68 0 -97 34 -109 93 -31 39 51 33 56 -9
8 -53 -63 -66 -57 -62 28 3 66 0 79 -15 63z"/>
<path d="M1766 394 c-18 -46 1 -144 28 -144 17 0 99 90 90 99 -3 3 -10 -3 -16
-14 -18 -32 -58 -67 -71 -62 -8 3 -12 26 -11 70 1 65 -7 84 -20 51z"/>
</g>
</svg>
